<svg xmlns="http://www.w3.org/2000/svg" viewBox="0 0 128 128" fill="none">
  <defs>
    <linearGradient id="ndex-bg" x1="18" y1="14" x2="112" y2="118" gradientUnits="userSpaceOnUse">
      <stop stop-color="#0E1826"/>
      <stop offset="1" stop-color="#091019"/>
    </linearGradient>
    <linearGradient id="ndex-accent" x1="20" y1="24" x2="104" y2="102" gradientUnits="userSpaceOnUse">
      <stop stop-color="#00CFC4"/>
      <stop offset="1" stop-color="#007F7A"/>
    </linearGradient>
    <linearGradient id="ndex-gold" x1="74" y1="18" x2="105" y2="56" gradientUnits="userSpaceOnUse">
      <stop stop-color="#F3EA64"/>
      <stop offset="1" stop-color="#CDBB27"/>
    </linearGradient>
  </defs>

  <rect x="8" y="8" width="112" height="112" rx="30" fill="url(#ndex-bg)"/>
  <rect x="8" y="8" width="112" height="112" rx="30" stroke="rgba(0,161,155,0.22)" stroke-width="2"/>

  <path d="M30 92V36.5L54.5 68.2V36.5H70V92H56L45.5 78.2L30 58.2V92H30Z" fill="url(#ndex-accent)"/>
  <path d="M79 36.5H96L84.5 52.2L77.5 43.2L79 36.5Z" fill="url(#ndex-gold)"/>
  <path d="M75.5 56.8L87.4 72L98.6 56.8H114L95.4 80.1L114 104H98.5L87.3 89.6L76.2 104H60.7L79.4 80L60.8 56.8H75.5Z" fill="#E7E069"/>
  <circle cx="94" cy="34" r="7" fill="#00A19B"/>
</svg>
